<svg class="rich-terminal" viewBox="0 0 1238 879.5999999999999" xmlns="http://www.w3.org/2000/svg">
    <!-- Generated with Rich https://www.textualize.io -->
    <style>

    @font-face {
        font-family: "Fira Code";
        src: local("FiraCode-Regular"),
                url("https://cdnjs.cloudflare.com/ajax/libs/firacode/6.2.0/woff2/FiraCode-Regular.woff2") format("woff2"),
                url("https://cdnjs.cloudflare.com/ajax/libs/firacode/6.2.0/woff/FiraCode-Regular.woff") format("woff");
        font-style: normal;
        font-weight: 400;
    }
    @font-face {
        font-family: "Fira Code";
        src: local("FiraCode-Bold"),
                url("https://cdnjs.cloudflare.com/ajax/libs/firacode/6.2.0/woff2/FiraCode-Bold.woff2") format("woff2"),
                url("https://cdnjs.cloudflare.com/ajax/libs/firacode/6.2.0/woff/FiraCode-Bold.woff") format("woff");
        font-style: bold;
        font-weight: 700;
    }

    .terminal-matrix {
        font-family: Fira Code, monospace;
        font-size: 20px;
        line-height: 24.4px;
        font-variant-east-asian: full-width;
    }

    .terminal-title {
        font-size: 18px;
        font-weight: bold;
        font-family: arial;
    }

    .terminal-r1 { fill: #c5c8c6 }
.terminal-r2 { fill: #d892ff;font-weight: bold }
.terminal-r3 { fill: #d892ff;text-decoration: underline; }
.terminal-r4 { fill: #d892ff }
.terminal-r5 { fill: #8b779d }
.terminal-r6 { fill: #737387 }
.terminal-r7 { fill: #f0f0e0 }
.terminal-r8 { fill: #ff9ccd;font-weight: bold }
.terminal-r9 { fill: #9f9fa5 }
.terminal-r10 { fill: #838387 }
.terminal-r11 { fill: #190b21;font-weight: bold }
.terminal-r12 { fill: #818183 }
.terminal-r13 { fill: #262443 }
.terminal-r14 { fill: #a1a1ab;font-weight: bold }
.terminal-r15 { fill: #a1a1ab }
.terminal-r16 { fill: #a0a0a8 }
.terminal-r17 { fill: #0d0e2e }
.terminal-r18 { fill: #111127 }
.terminal-r19 { fill: #1b132f }
.terminal-r20 { fill: #acaca7 }
.terminal-r21 { fill: #373742 }
.terminal-r22 { fill: #878790 }
.terminal-r23 { fill: #574f31 }
.terminal-r24 { fill: #afafad }
.terminal-r25 { fill: #55556b }
.terminal-r26 { fill: #161630 }
.terminal-r27 { fill: #41b48d }
.terminal-r28 { fill: #ff69b4;font-weight: bold }
    </style>

    <defs>
    <clipPath id="terminal-clip-terminal">
      <rect x="0" y="0" width="1219.0" height="828.5999999999999" />
    </clipPath>
    <clipPath id="terminal-line-0">
    <rect x="0" y="1.5" width="1220" height="24.65"/>
            </clipPath>
<clipPath id="terminal-line-1">
    <rect x="0" y="25.9" width="1220" height="24.65"/>
            </clipPath>
<clipPath id="terminal-line-2">
    <rect x="0" y="50.3" width="1220" height="24.65"/>
            </clipPath>
<clipPath id="terminal-line-3">
    <rect x="0" y="74.7" width="1220" height="24.65"/>
            </clipPath>
<clipPath id="terminal-line-4">
    <rect x="0" y="99.1" width="1220" height="24.65"/>
            </clipPath>
<clipPath id="terminal-line-5">
    <rect x="0" y="123.5" width="1220" height="24.65"/>
            </clipPath>
<clipPath id="terminal-line-6">
    <rect x="0" y="147.9" width="1220" height="24.65"/>
            </clipPath>
<clipPath id="terminal-line-7">
    <rect x="0" y="172.3" width="1220" height="24.65"/>
            </clipPath>
<clipPath id="terminal-line-8">
    <rect x="0" y="196.7" width="1220" height="24.65"/>
            </clipPath>
<clipPath id="terminal-line-9">
    <rect x="0" y="221.1" width="1220" height="24.65"/>
            </clipPath>
<clipPath id="terminal-line-10">
    <rect x="0" y="245.5" width="1220" height="24.65"/>
            </clipPath>
<clipPath id="terminal-line-11">
    <rect x="0" y="269.9" width="1220" height="24.65"/>
            </clipPath>
<clipPath id="terminal-line-12">
    <rect x="0" y="294.3" width="1220" height="24.65"/>
            </clipPath>
<clipPath id="terminal-line-13">
    <rect x="0" y="318.7" width="1220" height="24.65"/>
            </clipPath>
<clipPath id="terminal-line-14">
    <rect x="0" y="343.1" width="1220" height="24.65"/>
            </clipPath>
<clipPath id="terminal-line-15">
    <rect x="0" y="367.5" width="1220" height="24.65"/>
            </clipPath>
<clipPath id="terminal-line-16">
    <rect x="0" y="391.9" width="1220" height="24.65"/>
            </clipPath>
<clipPath id="terminal-line-17">
    <rect x="0" y="416.3" width="1220" height="24.65"/>
            </clipPath>
<clipPath id="terminal-line-18">
    <rect x="0" y="440.7" width="1220" height="24.65"/>
            </clipPath>
<clipPath id="terminal-line-19">
    <rect x="0" y="465.1" width="1220" height="24.65"/>
            </clipPath>
<clipPath id="terminal-line-20">
    <rect x="0" y="489.5" width="1220" height="24.65"/>
            </clipPath>
<clipPath id="terminal-line-21">
    <rect x="0" y="513.9" width="1220" height="24.65"/>
            </clipPath>
<clipPath id="terminal-line-22">
    <rect x="0" y="538.3" width="1220" height="24.65"/>
            </clipPath>
<clipPath id="terminal-line-23">
    <rect x="0" y="562.7" width="1220" height="24.65"/>
            </clipPath>
<clipPath id="terminal-line-24">
    <rect x="0" y="587.1" width="1220" height="24.65"/>
            </clipPath>
<clipPath id="terminal-line-25">
    <rect x="0" y="611.5" width="1220" height="24.65"/>
            </clipPath>
<clipPath id="terminal-line-26">
    <rect x="0" y="635.9" width="1220" height="24.65"/>
            </clipPath>
<clipPath id="terminal-line-27">
    <rect x="0" y="660.3" width="1220" height="24.65"/>
            </clipPath>
<clipPath id="terminal-line-28">
    <rect x="0" y="684.7" width="1220" height="24.65"/>
            </clipPath>
<clipPath id="terminal-line-29">
    <rect x="0" y="709.1" width="1220" height="24.65"/>
            </clipPath>
<clipPath id="terminal-line-30">
    <rect x="0" y="733.5" width="1220" height="24.65"/>
            </clipPath>
<clipPath id="terminal-line-31">
    <rect x="0" y="757.9" width="1220" height="24.65"/>
            </clipPath>
<clipPath id="terminal-line-32">
    <rect x="0" y="782.3" width="1220" height="24.65"/>
            </clipPath>
    </defs>

    <rect fill="#292929" stroke="rgba(255,255,255,0.35)" stroke-width="1" x="1" y="1" width="1236" height="877.6" rx="8"/><text class="terminal-title" fill="#c5c8c6" text-anchor="middle" x="618" y="27">Posting</text>
            <g transform="translate(26,22)">
            <circle cx="0" cy="0" r="7" fill="#ff5f57"/>
            <circle cx="22" cy="0" r="7" fill="#febc2e"/>
            <circle cx="44" cy="0" r="7" fill="#28c840"/>
            </g>
        
    <g transform="translate(9, 41)" clip-path="url(#terminal-clip-terminal)">
    <rect fill="#0f0f1f" x="0" y="1.5" width="12.2" height="24.65" shape-rendering="crispEdges"/><rect fill="#0f0f1f" x="12.2" y="1.5" width="85.4" height="24.65" shape-rendering="crispEdges"/><rect fill="#0f0f1f" x="97.6" y="1.5" width="1122.4" height="24.65" shape-rendering="crispEdges"/><rect fill="#452562" x="0" y="25.9" width="12.2" height="24.65" shape-rendering="crispEdges"/><rect fill="#452562" x="12.2" y="25.9" width="12.2" height="24.65" shape-rendering="crispEdges"/><rect fill="#452562" x="24.4" y="25.9" width="24.4" height="24.65" shape-rendering="crispEdges"/><rect fill="#452562" x="48.8" y="25.9" width="61" height="24.65" shape-rendering="crispEdges"/><rect fill="#452562" x="109.8" y="25.9" width="12.2" height="24.65" shape-rendering="crispEdges"/><rect fill="#452562" x="122" y="25.9" width="12.2" height="24.65" shape-rendering="crispEdges"/><rect fill="#1e1e3f" x="134.2" y="25.9" width="12.2" height="24.65" shape-rendering="crispEdges"/><rect fill="#1e1e3f" x="146.4" y="25.9" width="439.2" height="24.65" shape-rendering="crispEdges"/><rect fill="#1e1e3f" x="585.6" y="25.9" width="524.6" height="24.65" shape-rendering="crispEdges"/><rect fill="#1e1e3f" x="1110.2" y="25.9" width="12.2" height="24.65" shape-rendering="crispEdges"/><rect fill="#572a4b" x="1122.4" y="25.9" width="12.2" height="24.65" shape-rendering="crispEdges"/><rect fill="#572a4b" x="1134.6" y="25.9" width="73.2" height="24.65" shape-rendering="crispEdges"/><rect fill="#572a4b" x="1207.8" y="25.9" width="12.2" height="24.65" shape-rendering="crispEdges"/><rect fill="#0f0f1f" x="0" y="50.3" width="610" height="24.65" shape-rendering="crispEdges"/><rect fill="#0f0f1f" x="610" y="50.3" width="0" height="24.65" shape-rendering="crispEdges"/><rect fill="#0f0f1f" x="610" y="50.3" width="610" height="24.65" shape-rendering="crispEdges"/><rect fill="#16162f" x="0" y="74.7" width="12.2" height="24.65" shape-rendering="crispEdges"/><rect fill="#16162f" x="12.2" y="74.7" width="134.2" height="24.65" shape-rendering="crispEdges"/><rect fill="#16162f" x="146.4" y="74.7" width="12.2" height="24.65" shape-rendering="crispEdges"/><rect fill="#c45aff" x="158.6" y="74.7" width="12.2" height="24.65" shape-rendering="crispEdges"/><rect fill="#c45aff" x="170.8" y="74.7" width="85.4" height="24.65" shape-rendering="crispEdges"/><rect fill="#c45aff" x="256.2" y="74.7" width="12.2" height="24.65" shape-rendering="crispEdges"/><rect fill="#16162f" x="268.4" y="74.7" width="122" height="24.65" shape-rendering="crispEdges"/><rect fill="#121227" x="390.4" y="74.7" width="12.2" height="24.65" shape-rendering="crispEdges"/><rect fill="#121227" x="402.6" y="74.7" width="85.4" height="24.65" shape-rendering="crispEdges"/><rect fill="#121227" x="488" y="74.7" width="24.4" height="24.65" shape-rendering="crispEdges"/><rect fill="#121227" x="512.4" y="74.7" width="48.8" height="24.65" shape-rendering="crispEdges"/><rect fill="#121227" x="561.2" y="74.7" width="24.4" height="24.65" shape-rendering="crispEdges"/><rect fill="#121227" x="585.6" y="74.7" width="48.8" height="24.65" shape-rendering="crispEdges"/><rect fill="#121227" x="634.4" y="74.7" width="24.4" height="24.65" shape-rendering="crispEdges"/><rect fill="#121227" x="658.8" y="74.7" width="61" height="24.65" shape-rendering="crispEdges"/><rect fill="#121227" x="719.8" y="74.7" width="24.4" height="24.65" shape-rendering="crispEdges"/><rect fill="#121227" x="744.2" y="74.7" width="48.8" height="24.65" shape-rendering="crispEdges"/><rect fill="#121227" x="793" y="74.7" width="24.4" height="24.65" shape-rendering="crispEdges"/><rect fill="#121227" x="817.4" y="74.7" width="48.8" height="24.65" shape-rendering="crispEdges"/><rect fill="#121227" x="866.2" y="74.7" width="24.4" height="24.65" shape-rendering="crispEdges"/><rect fill="#121227" x="890.6" y="74.7" width="85.4" height="24.65" shape-rendering="crispEdges"/><rect fill="#121227" x="976" y="74.7" width="24.4" height="24.65" shape-rendering="crispEdges"/><rect fill="#121227" x="1000.4" y="74.7" width="85.4" height="24.65" shape-rendering="crispEdges"/><rect fill="#121227" x="1085.8" y="74.7" width="134.2" height="24.65" shape-rendering="crispEdges"/><rect fill="#16162f" x="0" y="99.1" width="390.4" height="24.65" shape-rendering="crispEdges"/><rect fill="#121227" x="390.4" y="99.1" width="829.6" height="24.65" shape-rendering="crispEdges"/><rect fill="#16162f" x="0" y="123.5" width="24.4" height="24.65" shape-rendering="crispEdges"/><rect fill="#16162f" x="24.4" y="123.5" width="195.2" height="24.65" shape-rendering="crispEdges"/><rect fill="#16162f" x="219.6" y="123.5" width="170.8" height="24.65" shape-rendering="crispEdges"/><rect fill="#121227" x="390.4" y="123.5" width="829.6" height="24.65" shape-rendering="crispEdges"/><rect fill="#16162f" x="0" y="147.9" width="24.4" height="24.65" shape-rendering="crispEdges"/><rect fill="#16162f" x="24.4" y="147.9" width="0" height="24.65" shape-rendering="crispEdges"/><rect fill="#16162f" x="24.4" y="147.9" width="366" height="24.65" shape-rendering="crispEdges"/><rect fill="#121227" x="390.4" y="147.9" width="829.6" height="24.65" shape-rendering="crispEdges"/><rect fill="#16162f" x="0" y="172.3" width="24.4" height="24.65" shape-rendering="crispEdges"/><rect fill="#16162f" x="24.4" y="172.3" width="317.2" height="24.65" shape-rendering="crispEdges"/><rect fill="#16162f" x="341.6" y="172.3" width="48.8" height="24.65" shape-rendering="crispEdges"/><rect fill="#121227" x="390.4" y="172.3" width="829.6" height="24.65" shape-rendering="crispEdges"/><rect fill="#16162f" x="0" y="196.7" width="24.4" height="24.65" shape-rendering="crispEdges"/><rect fill="#16162f" x="24.4" y="196.7" width="170.8" height="24.65" shape-rendering="crispEdges"/><rect fill="#16162f" x="195.2" y="196.7" width="195.2" height="24.65" shape-rendering="crispEdges"/><rect fill="#121227" x="390.4" y="196.7" width="829.6" height="24.65" shape-rendering="crispEdges"/><rect fill="#16162f" x="0" y="221.1" width="24.4" height="24.65" shape-rendering="crispEdges"/><rect fill="#16162f" x="24.4" y="221.1" width="0" height="24.65" shape-rendering="crispEdges"/><rect fill="#16162f" x="24.4" y="221.1" width="366" height="24.65" shape-rendering="crispEdges"/><rect fill="#121227" x="390.4" y="221.1" width="829.6" height="24.65" shape-rendering="crispEdges"/><rect fill="#16162f" x="0" y="245.5" width="24.4" height="24.65" shape-rendering="crispEdges"/><rect fill="#16162f" x="24.4" y="245.5" width="341.6" height="24.65" shape-rendering="crispEdges"/><rect fill="#16162f" x="366" y="245.5" width="24.4" height="24.65" shape-rendering="crispEdges"/><rect fill="#121227" x="390.4" y="245.5" width="353.8" height="24.65" shape-rendering="crispEdges"/><rect fill="#121227" x="744.2" y="245.5" width="122" height="24.65" shape-rendering="crispEdges"/><rect fill="#121227" x="866.2" y="245.5" width="353.8" height="24.65" shape-rendering="crispEdges"/><rect fill="#16162f" x="0" y="269.9" width="24.4" height="24.65" shape-rendering="crispEdges"/><rect fill="#16162f" x="24.4" y="269.9" width="195.2" height="24.65" shape-rendering="crispEdges"/><rect fill="#16162f" x="219.6" y="269.9" width="170.8" height="24.65" shape-rendering="crispEdges"/><rect fill="#121227" x="390.4" y="269.9" width="829.6" height="24.65" shape-rendering="crispEdges"/><rect fill="#16162f" x="0" y="294.3" width="390.4" height="24.65" shape-rendering="crispEdges"/><rect fill="#121227" x="390.4" y="294.3" width="829.6" height="24.65" shape-rendering="crispEdges"/><rect fill="#16162f" x="0" y="318.7" width="390.4" height="24.65" shape-rendering="crispEdges"/><rect fill="#121227" x="390.4" y="318.7" width="829.6" height="24.65" shape-rendering="crispEdges"/><rect fill="#16162f" x="0" y="343.1" width="390.4" height="24.65" shape-rendering="crispEdges"/><rect fill="#121227" x="390.4" y="343.1" width="829.6" height="24.65" shape-rendering="crispEdges"/><rect fill="#16162f" x="0" y="367.5" width="390.4" height="24.65" shape-rendering="crispEdges"/><rect fill="#121227" x="390.4" y="367.5" width="829.6" height="24.65" shape-rendering="crispEdges"/><rect fill="#16162f" x="0" y="391.9" width="390.4" height="24.65" shape-rendering="crispEdges"/><rect fill="#121227" x="390.4" y="391.9" width="829.6" height="24.65" shape-rendering="crispEdges"/><rect fill="#16162f" x="0" y="416.3" width="390.4" height="24.65" shape-rendering="crispEdges"/><rect fill="#1e1e3f" x="390.4" y="416.3" width="12.2" height="24.65" shape-rendering="crispEdges"/><rect fill="#1e1e3f" x="402.6" y="416.3" width="48.8" height="24.65" shape-rendering="crispEdges"/><rect fill="#1e1e3f" x="451.4" y="416.3" width="305" height="24.65" shape-rendering="crispEdges"/><rect fill="#1e1e3f" x="756.4" y="416.3" width="12.2" height="24.65" shape-rendering="crispEdges"/><rect fill="#1e1e3f" x="768.6" y="416.3" width="61" height="24.65" shape-rendering="crispEdges"/><rect fill="#1e1e3f" x="829.6" y="416.3" width="292.8" height="24.65" shape-rendering="crispEdges"/><rect fill="#2e1d49" x="1122.4" y="416.3" width="12.2" height="24.65" shape-rendering="crispEdges"/><rect fill="#2e1d49" x="1134.6" y="416.3" width="12.2" height="24.65" shape-rendering="crispEdges"/><rect fill="#2e1d49" x="1146.8" y="416.3" width="61" height="24.65" shape-rendering="crispEdges"/><rect fill="#2e1d49" x="1207.8" y="416.3" width="12.2" height="24.65" shape-rendering="crispEdges"/><rect fill="#16162f" x="0" y="440.7" width="390.4" height="24.65" shape-rendering="crispEdges"/><rect fill="#101022" x="390.4" y="440.7" width="12.2" height="24.65" shape-rendering="crispEdges"/><rect fill="#101022" x="402.6" y="440.7" width="48.8" height="24.65" shape-rendering="crispEdges"/><rect fill="#101022" x="451.4" y="440.7" width="24.4" height="24.65" shape-rendering="crispEdges"/><rect fill="#101022" x="475.8" y="440.7" width="85.4" height="24.65" shape-rendering="crispEdges"/><rect fill="#101022" x="561.2" y="440.7" width="24.4" height="24.65" shape-rendering="crispEdges"/><rect fill="#101022" x="585.6" y="440.7" width="85.4" height="24.65" shape-rendering="crispEdges"/><rect fill="#101022" x="671" y="440.7" width="24.4" height="24.65" shape-rendering="crispEdges"/><rect fill="#101022" x="695.4" y="440.7" width="85.4" height="24.65" shape-rendering="crispEdges"/><rect fill="#101022" x="780.8" y="440.7" width="24.4" height="24.65" shape-rendering="crispEdges"/><rect fill="#101022" x="805.2" y="440.7" width="61" height="24.65" shape-rendering="crispEdges"/><rect fill="#101022" x="866.2" y="440.7" width="353.8" height="24.65" shape-rendering="crispEdges"/><rect fill="#16162f" x="0" y="465.1" width="390.4" height="24.65" shape-rendering="crispEdges"/><rect fill="#101022" x="390.4" y="465.1" width="829.6" height="24.65" shape-rendering="crispEdges"/><rect fill="#16162f" x="0" y="489.5" width="390.4" height="24.65" shape-rendering="crispEdges"/><rect fill="#101022" x="390.4" y="489.5" width="829.6" height="24.65" shape-rendering="crispEdges"/><rect fill="#16162f" x="0" y="513.9" width="390.4" height="24.65" shape-rendering="crispEdges"/><rect fill="#101022" x="390.4" y="513.9" width="829.6" height="24.65" shape-rendering="crispEdges"/><rect fill="#16162f" x="0" y="538.3" width="390.4" height="24.65" shape-rendering="crispEdges"/><rect fill="#101022" x="390.4" y="538.3" width="829.6" height="24.65" shape-rendering="crispEdges"/><rect fill="#16162f" x="0" y="562.7" width="390.4" height="24.65" shape-rendering="crispEdges"/><rect fill="#101022" x="390.4" y="562.7" width="829.6" height="24.65" shape-rendering="crispEdges"/><rect fill="#16162f" x="0" y="587.1" width="390.4" height="24.65" shape-rendering="crispEdges"/><rect fill="#101022" x="390.4" y="587.1" width="829.6" height="24.65" shape-rendering="crispEdges"/><rect fill="#16162f" x="0" y="611.5" width="390.4" height="24.65" shape-rendering="crispEdges"/><rect fill="#101022" x="390.4" y="611.5" width="829.6" height="24.65" shape-rendering="crispEdges"/><rect fill="#16162f" x="0" y="635.9" width="390.4" height="24.65" shape-rendering="crispEdges"/><rect fill="#101022" x="390.4" y="635.9" width="829.6" height="24.65" shape-rendering="crispEdges"/><rect fill="#16162f" x="0" y="660.3" width="390.4" height="24.65" shape-rendering="crispEdges"/><rect fill="#101022" x="390.4" y="660.3" width="829.6" height="24.65" shape-rendering="crispEdges"/><rect fill="#16162f" x="0" y="684.7" width="390.4" height="24.65" shape-rendering="crispEdges"/><rect fill="#101022" x="390.4" y="684.7" width="829.6" height="24.65" shape-rendering="crispEdges"/><rect fill="#16162f" x="0" y="709.1" width="390.4" height="24.65" shape-rendering="crispEdges"/><rect fill="#101022" x="390.4" y="709.1" width="829.6" height="24.65" shape-rendering="crispEdges"/><rect fill="#16162f" x="0" y="733.5" width="390.4" height="24.65" shape-rendering="crispEdges"/><rect fill="#101022" x="390.4" y="733.5" width="829.6" height="24.65" shape-rendering="crispEdges"/><rect fill="#16162f" x="0" y="757.9" width="390.4" height="24.65" shape-rendering="crispEdges"/><rect fill="#101022" x="390.4" y="757.9" width="829.6" height="24.65" shape-rendering="crispEdges"/><rect fill="#16162f" x="0" y="782.3" width="390.4" height="24.65" shape-rendering="crispEdges"/><rect fill="#101022" x="390.4" y="782.3" width="390.4" height="24.65" shape-rendering="crispEdges"/><rect fill="#101022" x="780.8" y="782.3" width="36.6" height="24.65" shape-rendering="crispEdges"/><rect fill="#101022" x="817.4" y="782.3" width="12.2" height="24.65" shape-rendering="crispEdges"/><rect fill="#161520" x="829.6" y="782.3" width="12.2" height="24.65" shape-rendering="crispEdges"/><rect fill="#161520" x="841.8" y="782.3" width="109.8" height="24.65" shape-rendering="crispEdges"/><rect fill="#161520" x="951.6" y="782.3" width="12.2" height="24.65" shape-rendering="crispEdges"/><rect fill="#101022" x="963.8" y="782.3" width="12.2" height="24.65" shape-rendering="crispEdges"/><rect fill="#161630" x="976" y="782.3" width="12.2" height="24.65" shape-rendering="crispEdges"/><rect fill="#191936" x="988.2" y="782.3" width="48.8" height="24.65" shape-rendering="crispEdges"/><rect fill="#191936" x="1037" y="782.3" width="12.2" height="24.65" shape-rendering="crispEdges"/><rect fill="#191936" x="1049.2" y="782.3" width="12.2" height="24.65" shape-rendering="crispEdges"/><rect fill="#161630" x="1061.4" y="782.3" width="12.2" height="24.65" shape-rendering="crispEdges"/><rect fill="#101022" x="1073.6" y="782.3" width="12.2" height="24.65" shape-rendering="crispEdges"/><rect fill="#161630" x="1085.8" y="782.3" width="12.2" height="24.65" shape-rendering="crispEdges"/><rect fill="#161630" x="1098" y="782.3" width="48.8" height="24.65" shape-rendering="crispEdges"/><rect fill="#161630" x="1146.8" y="782.3" width="12.2" height="24.65" shape-rendering="crispEdges"/><rect fill="#161630" x="1159" y="782.3" width="12.2" height="24.65" shape-rendering="crispEdges"/><rect fill="#161630" x="1171.2" y="782.3" width="12.2" height="24.65" shape-rendering="crispEdges"/><rect fill="#161630" x="1183.4" y="782.3" width="12.2" height="24.65" shape-rendering="crispEdges"/><rect fill="#161630" x="1195.6" y="782.3" width="12.2" height="24.65" shape-rendering="crispEdges"/><rect fill="#101022" x="1207.8" y="782.3" width="12.2" height="24.65" shape-rendering="crispEdges"/><rect fill="#0f0f1f" x="0" y="806.7" width="12.2" height="24.65" shape-rendering="crispEdges"/><rect fill="#0f0f1f" x="12.2" y="806.7" width="24.4" height="24.65" shape-rendering="crispEdges"/><rect fill="#0f0f1f" x="36.6" y="806.7" width="61" height="24.65" shape-rendering="crispEdges"/><rect fill="#0f0f1f" x="97.6" y="806.7" width="12.2" height="24.65" shape-rendering="crispEdges"/><rect fill="#0f0f1f" x="109.8" y="806.7" width="24.4" height="24.65" shape-rendering="crispEdges"/><rect fill="#0f0f1f" x="134.2" y="806.7" width="61" height="24.65" shape-rendering="crispEdges"/><rect fill="#0f0f1f" x="195.2" y="806.7" width="12.2" height="24.65" shape-rendering="crispEdges"/><rect fill="#0f0f1f" x="207.4" y="806.7" width="24.4" height="24.65" shape-rendering="crispEdges"/><rect fill="#0f0f1f" x="231.8" y="806.7" width="85.4" height="24.65" shape-rendering="crispEdges"/><rect fill="#0f0f1f" x="317.2" y="806.7" width="12.2" height="24.65" shape-rendering="crispEdges"/><rect fill="#0f0f1f" x="329.4" y="806.7" width="24.4" height="24.65" shape-rendering="crispEdges"/><rect fill="#0f0f1f" x="353.8" y="806.7" width="61" height="24.65" shape-rendering="crispEdges"/><rect fill="#0f0f1f" x="414.8" y="806.7" width="12.2" height="24.65" shape-rendering="crispEdges"/><rect fill="#0f0f1f" x="427" y="806.7" width="24.4" height="24.65" shape-rendering="crispEdges"/><rect fill="#0f0f1f" x="451.4" y="806.7" width="61" height="24.65" shape-rendering="crispEdges"/><rect fill="#0f0f1f" x="512.4" y="806.7" width="12.2" height="24.65" shape-rendering="crispEdges"/><rect fill="#0f0f1f" x="524.6" y="806.7" width="24.4" height="24.65" shape-rendering="crispEdges"/><rect fill="#0f0f1f" x="549" y="806.7" width="48.8" height="24.65" shape-rendering="crispEdges"/><rect fill="#0f0f1f" x="597.8" y="806.7" width="12.2" height="24.65" shape-rendering="crispEdges"/><rect fill="#0f0f1f" x="610" y="806.7" width="24.4" height="24.65" shape-rendering="crispEdges"/><rect fill="#0f0f1f" x="634.4" y="806.7" width="195.2" height="24.65" shape-rendering="crispEdges"/><rect fill="#0f0f1f" x="829.6" y="806.7" width="12.2" height="24.65" shape-rendering="crispEdges"/><rect fill="#0f0f1f" x="841.8" y="806.7" width="24.4" height="24.65" shape-rendering="crispEdges"/><rect fill="#0f0f1f" x="866.2" y="806.7" width="109.8" height="24.65" shape-rendering="crispEdges"/><rect fill="#0f0f1f" x="976" y="806.7" width="12.2" height="24.65" shape-rendering="crispEdges"/><rect fill="#0f0f1f" x="988.2" y="806.7" width="24.4" height="24.65" shape-rendering="crispEdges"/><rect fill="#0f0f1f" x="1012.6" y="806.7" width="61" height="24.65" shape-rendering="crispEdges"/><rect fill="#0f0f1f" x="1073.6" y="806.7" width="146.4" height="24.65" shape-rendering="crispEdges"/>
    <g class="terminal-matrix">
    <text class="terminal-r2" x="12.2" y="20" textLength="85.4" clip-path="url(#terminal-line-0)">Posting</text><text class="terminal-r1" x="1220" y="20" textLength="12.2" clip-path="url(#terminal-line-0)">
</text><text class="terminal-r3" x="12.2" y="44.4" textLength="12.2" clip-path="url(#terminal-line-1)">G</text><text class="terminal-r4" x="24.4" y="44.4" textLength="24.4" clip-path="url(#terminal-line-1)">ET</text><text class="terminal-r5" x="109.8" y="44.4" textLength="12.2" clip-path="url(#terminal-line-1)">▼</text><text class="terminal-r6" x="146.4" y="44.4" textLength="439.2" clip-path="url(#terminal-line-1)">Enter&#160;a&#160;URL&#160;or&#160;paste&#160;a&#160;curl&#160;command…</text><text class="terminal-r8" x="1134.6" y="44.4" textLength="73.2" clip-path="url(#terminal-line-1)">&#160;Send&#160;</text><text class="terminal-r1" x="1220" y="44.4" textLength="12.2" clip-path="url(#terminal-line-1)">
</text><text class="terminal-r1" x="1220" y="68.8" textLength="12.2" clip-path="url(#terminal-line-2)">
</text><text class="terminal-r10" x="12.2" y="93.2" textLength="134.2" clip-path="url(#terminal-line-3)">Collections</text><text class="terminal-r11" x="170.8" y="93.2" textLength="85.4" clip-path="url(#terminal-line-3)">History</text><text class="terminal-r7" x="402.6" y="93.2" textLength="85.4" clip-path="url(#terminal-line-3)">Headers</text><text class="terminal-r12" x="512.4" y="93.2" textLength="48.8" clip-path="url(#terminal-line-3)">Body</text><text class="terminal-r12" x="585.6" y="93.2" textLength="48.8" clip-path="url(#terminal-line-3)">Path</text><text class="terminal-r12" x="658.8" y="93.2" textLength="61" clip-path="url(#terminal-line-3)">Query</text><text class="terminal-r12" x="744.2" y="93.2" textLength="48.8" clip-path="url(#terminal-line-3)">Auth</text><text class="terminal-r12" x="817.4" y="93.2" textLength="48.8" clip-path="url(#terminal-line-3)">Info</text><text class="terminal-r12" x="890.6" y="93.2" textLength="85.4" clip-path="url(#terminal-line-3)">Scripts</text><text class="terminal-r12" x="1000.4" y="93.2" textLength="85.4" clip-path="url(#terminal-line-3)">Options</text><text class="terminal-r1" x="1220" y="93.2" textLength="12.2" clip-path="url(#terminal-line-3)">
</text><text class="terminal-r13" x="390.4" y="117.6" textLength="829.6" clip-path="url(#terminal-line-4)">╱╱╱╱╱╱╱╱╱╱╱╱╱╱╱╱╱╱╱╱╱╱╱╱╱╱╱╱╱╱╱╱╱╱╱╱╱╱╱╱╱╱╱╱╱╱╱╱╱╱╱╱╱╱╱╱╱╱╱╱╱╱╱╱╱╱╱╱</text><text class="terminal-r1" x="1220" y="117.6" textLength="12.2" clip-path="url(#terminal-line-4)">
</text><text class="terminal-r14" x="24.4" y="142" textLength="195.2" clip-path="url(#terminal-line-5)">No&#160;responses&#160;yet</text><text class="terminal-r13" x="390.4" y="142" textLength="829.6" clip-path="url(#terminal-line-5)">╱╱╱╱╱╱╱╱╱╱╱╱╱╱╱╱╱╱╱╱╱╱╱╱╱╱╱╱╱╱╱╱╱╱╱╱╱╱╱╱╱╱╱╱╱╱╱╱╱╱╱╱╱╱╱╱╱╱╱╱╱╱╱╱╱╱╱╱</text><text class="terminal-r1" x="1220" y="142" textLength="12.2" clip-path="url(#terminal-line-5)">
</text><text class="terminal-r13" x="390.4" y="166.4" textLength="829.6" clip-path="url(#terminal-line-6)">╱╱╱╱╱╱╱╱╱╱╱╱╱╱╱╱╱╱╱╱╱╱╱╱╱╱╱╱╱╱╱╱╱╱╱╱╱╱╱╱╱╱╱╱╱╱╱╱╱╱╱╱╱╱╱╱╱╱╱╱╱╱╱╱╱╱╱╱</text><text class="terminal-r1" x="1220" y="166.4" textLength="12.2" clip-path="url(#terminal-line-6)">
</text><text class="terminal-r15" x="24.4" y="190.8" textLength="317.2" clip-path="url(#terminal-line-7)">Send&#160;a&#160;request&#160;to&#160;keep&#160;its</text><text class="terminal-r13" x="390.4" y="190.8" textLength="829.6" clip-path="url(#terminal-line-7)">╱╱╱╱╱╱╱╱╱╱╱╱╱╱╱╱╱╱╱╱╱╱╱╱╱╱╱╱╱╱╱╱╱╱╱╱╱╱╱╱╱╱╱╱╱╱╱╱╱╱╱╱╱╱╱╱╱╱╱╱╱╱╱╱╱╱╱╱</text><text class="terminal-r1" x="1220" y="190.8" textLength="12.2" clip-path="url(#terminal-line-7)">
</text><text class="terminal-r15" x="24.4" y="215.2" textLength="170.8" clip-path="url(#terminal-line-8)">response&#160;here.</text><text class="terminal-r13" x="390.4" y="215.2" textLength="829.6" clip-path="url(#terminal-line-8)">╱╱╱╱╱╱╱╱╱╱╱╱╱╱╱╱╱╱╱╱╱╱╱╱╱╱╱╱╱╱╱╱╱╱╱╱╱╱╱╱╱╱╱╱╱╱╱╱╱╱╱╱╱╱╱╱╱╱╱╱╱╱╱╱╱╱╱╱</text><text class="terminal-r1" x="1220" y="215.2" textLength="12.2" clip-path="url(#terminal-line-8)">
</text><text class="terminal-r13" x="390.4" y="239.6" textLength="829.6" clip-path="url(#terminal-line-9)">╱╱╱╱╱╱╱╱╱╱╱╱╱╱╱╱╱╱╱╱╱╱╱╱╱╱╱╱╱╱╱╱╱╱╱╱╱╱╱╱╱╱╱╱╱╱╱╱╱╱╱╱╱╱╱╱╱╱╱╱╱╱╱╱╱╱╱╱</text><text class="terminal-r1" x="1220" y="239.6" textLength="12.2" clip-path="url(#terminal-line-9)">
</text><text class="terminal-r15" x="24.4" y="264" textLength="341.6" clip-path="url(#terminal-line-10)">History&#160;is&#160;saved&#160;locally&#160;for</text><text class="terminal-r13" x="390.4" y="264" textLength="353.8" clip-path="url(#terminal-line-10)">╱╱╱╱╱╱╱╱╱╱╱╱╱╱╱╱╱╱╱╱╱╱╱╱╱╱╱╱╱</text><text class="terminal-r16" x="744.2" y="264" textLength="122" clip-path="url(#terminal-line-10)">No&#160;headers</text><text class="terminal-r13" x="866.2" y="264" textLength="353.8" clip-path="url(#terminal-line-10)">╱╱╱╱╱╱╱╱╱╱╱╱╱╱╱╱╱╱╱╱╱╱╱╱╱╱╱╱╱</text><text class="terminal-r1" x="1220" y="264" textLength="12.2" clip-path="url(#terminal-line-10)">
</text><text class="terminal-r15" x="24.4" y="288.4" textLength="195.2" clip-path="url(#terminal-line-11)">this&#160;collection.</text><text class="terminal-r13" x="390.4" y="288.4" textLength="829.6" clip-path="url(#terminal-line-11)">╱╱╱╱╱╱╱╱╱╱╱╱╱╱╱╱╱╱╱╱╱╱╱╱╱╱╱╱╱╱╱╱╱╱╱╱╱╱╱╱╱╱╱╱╱╱╱╱╱╱╱╱╱╱╱╱╱╱╱╱╱╱╱╱╱╱╱╱</text><text class="terminal-r1" x="1220" y="288.4" textLength="12.2" clip-path="url(#terminal-line-11)">
</text><text class="terminal-r13" x="390.4" y="312.8" textLength="829.6" clip-path="url(#terminal-line-12)">╱╱╱╱╱╱╱╱╱╱╱╱╱╱╱╱╱╱╱╱╱╱╱╱╱╱╱╱╱╱╱╱╱╱╱╱╱╱╱╱╱╱╱╱╱╱╱╱╱╱╱╱╱╱╱╱╱╱╱╱╱╱╱╱╱╱╱╱</text><text class="terminal-r1" x="1220" y="312.8" textLength="12.2" clip-path="url(#terminal-line-12)">
</text><text class="terminal-r13" x="390.4" y="337.2" textLength="829.6" clip-path="url(#terminal-line-13)">╱╱╱╱╱╱╱╱╱╱╱╱╱╱╱╱╱╱╱╱╱╱╱╱╱╱╱╱╱╱╱╱╱╱╱╱╱╱╱╱╱╱╱╱╱╱╱╱╱╱╱╱╱╱╱╱╱╱╱╱╱╱╱╱╱╱╱╱</text><text class="terminal-r1" x="1220" y="337.2" textLength="12.2" clip-path="url(#terminal-line-13)">
</text><text class="terminal-r13" x="390.4" y="361.6" textLength="829.6" clip-path="url(#terminal-line-14)">╱╱╱╱╱╱╱╱╱╱╱╱╱╱╱╱╱╱╱╱╱╱╱╱╱╱╱╱╱╱╱╱╱╱╱╱╱╱╱╱╱╱╱╱╱╱╱╱╱╱╱╱╱╱╱╱╱╱╱╱╱╱╱╱╱╱╱╱</text><text class="terminal-r1" x="1220" y="361.6" textLength="12.2" clip-path="url(#terminal-line-14)">
</text><text class="terminal-r13" x="390.4" y="386" textLength="829.6" clip-path="url(#terminal-line-15)">╱╱╱╱╱╱╱╱╱╱╱╱╱╱╱╱╱╱╱╱╱╱╱╱╱╱╱╱╱╱╱╱╱╱╱╱╱╱╱╱╱╱╱╱╱╱╱╱╱╱╱╱╱╱╱╱╱╱╱╱╱╱╱╱╱╱╱╱</text><text class="terminal-r1" x="1220" y="386" textLength="12.2" clip-path="url(#terminal-line-15)">
</text><text class="terminal-r13" x="390.4" y="410.4" textLength="829.6" clip-path="url(#terminal-line-16)">╱╱╱╱╱╱╱╱╱╱╱╱╱╱╱╱╱╱╱╱╱╱╱╱╱╱╱╱╱╱╱╱╱╱╱╱╱╱╱╱╱╱╱╱╱╱╱╱╱╱╱╱╱╱╱╱╱╱╱╱╱╱╱╱╱╱╱╱</text><text class="terminal-r1" x="1220" y="410.4" textLength="12.2" clip-path="url(#terminal-line-16)">
</text><text class="terminal-r17" x="390.4" y="434.8" textLength="12.2" clip-path="url(#terminal-line-17)">▏</text><text class="terminal-r6" x="402.6" y="434.8" textLength="48.8" clip-path="url(#terminal-line-17)">Name</text><text class="terminal-r17" x="756.4" y="434.8" textLength="12.2" clip-path="url(#terminal-line-17)">▏</text><text class="terminal-r6" x="768.6" y="434.8" textLength="61" clip-path="url(#terminal-line-17)">Value</text><text class="terminal-r18" x="1122.4" y="434.8" textLength="12.2" clip-path="url(#terminal-line-17)">▏</text><text class="terminal-r19" x="1146.8" y="434.8" textLength="61" clip-path="url(#terminal-line-17)">&#160;Add&#160;</text><text class="terminal-r1" x="1220" y="434.8" textLength="12.2" clip-path="url(#terminal-line-17)">
</text><text class="terminal-r20" x="402.6" y="459.2" textLength="48.8" clip-path="url(#terminal-line-18)">Body</text><text class="terminal-r21" x="475.8" y="459.2" textLength="85.4" clip-path="url(#terminal-line-18)">Headers</text><text class="terminal-r21" x="585.6" y="459.2" textLength="85.4" clip-path="url(#terminal-line-18)">Cookies</text><text class="terminal-r21" x="695.4" y="459.2" textLength="85.4" clip-path="url(#terminal-line-18)">Scripts</text><text class="terminal-r21" x="805.2" y="459.2" textLength="61" clip-path="url(#terminal-line-18)">Trace</text><text class="terminal-r1" x="1220" y="459.2" textLength="12.2" clip-path="url(#terminal-line-18)">
</text><text class="terminal-r1" x="1220" y="483.6" textLength="12.2" clip-path="url(#terminal-line-19)">
</text><text class="terminal-r1" x="1220" y="508" textLength="12.2" clip-path="url(#terminal-line-20)">
</text><text class="terminal-r1" x="1220" y="532.4" textLength="12.2" clip-path="url(#terminal-line-21)">
</text><text class="terminal-r1" x="1220" y="556.8" textLength="12.2" clip-path="url(#terminal-line-22)">
</text><text class="terminal-r1" x="1220" y="581.2" textLength="12.2" clip-path="url(#terminal-line-23)">
</text><text class="terminal-r1" x="1220" y="605.6" textLength="12.2" clip-path="url(#terminal-line-24)">
</text><text class="terminal-r1" x="1220" y="630" textLength="12.2" clip-path="url(#terminal-line-25)">
</text><text class="terminal-r1" x="1220" y="654.4" textLength="12.2" clip-path="url(#terminal-line-26)">
</text><text class="terminal-r1" x="1220" y="678.8" textLength="12.2" clip-path="url(#terminal-line-27)">
</text><text class="terminal-r1" x="1220" y="703.2" textLength="12.2" clip-path="url(#terminal-line-28)">
</text><text class="terminal-r1" x="1220" y="727.6" textLength="12.2" clip-path="url(#terminal-line-29)">
</text><text class="terminal-r1" x="1220" y="752" textLength="12.2" clip-path="url(#terminal-line-30)">
</text><text class="terminal-r1" x="1220" y="776.4" textLength="12.2" clip-path="url(#terminal-line-31)">
</text><text class="terminal-r22" x="780.8" y="800.8" textLength="36.6" clip-path="url(#terminal-line-32)">1:1</text><text class="terminal-r23" x="841.8" y="800.8" textLength="109.8" clip-path="url(#terminal-line-32)">read-only</text><text class="terminal-r24" x="988.2" y="800.8" textLength="48.8" clip-path="url(#terminal-line-32)">JSON</text><text class="terminal-r25" x="1049.2" y="800.8" textLength="12.2" clip-path="url(#terminal-line-32)">▼</text><text class="terminal-r20" x="1098" y="800.8" textLength="48.8" clip-path="url(#terminal-line-32)">Wrap</text><text class="terminal-r26" x="1159" y="800.8" textLength="12.2" clip-path="url(#terminal-line-32)">▐</text><text class="terminal-r27" x="1171.2" y="800.8" textLength="12.2" clip-path="url(#terminal-line-32)">X</text><text class="terminal-r26" x="1183.4" y="800.8" textLength="12.2" clip-path="url(#terminal-line-32)">▌</text><text class="terminal-r1" x="1220" y="800.8" textLength="12.2" clip-path="url(#terminal-line-32)">
</text><text class="terminal-r28" x="12.2" y="825.2" textLength="24.4" clip-path="url(#terminal-line-33)">^c</text><text class="terminal-r7" x="36.6" y="825.2" textLength="61" clip-path="url(#terminal-line-33)">&#160;Quit</text><text class="terminal-r28" x="109.8" y="825.2" textLength="24.4" clip-path="url(#terminal-line-33)">^j</text><text class="terminal-r7" x="134.2" y="825.2" textLength="61" clip-path="url(#terminal-line-33)">&#160;Send</text><text class="terminal-r28" x="207.4" y="825.2" textLength="24.4" clip-path="url(#terminal-line-33)">^t</text><text class="terminal-r7" x="231.8" y="825.2" textLength="85.4" clip-path="url(#terminal-line-33)">&#160;Method</text><text class="terminal-r28" x="329.4" y="825.2" textLength="24.4" clip-path="url(#terminal-line-33)">^o</text><text class="terminal-r7" x="353.8" y="825.2" textLength="61" clip-path="url(#terminal-line-33)">&#160;Jump</text><text class="terminal-r28" x="427" y="825.2" textLength="24.4" clip-path="url(#terminal-line-33)">^s</text><text class="terminal-r7" x="451.4" y="825.2" textLength="61" clip-path="url(#terminal-line-33)">&#160;Save</text><text class="terminal-r28" x="524.6" y="825.2" textLength="24.4" clip-path="url(#terminal-line-33)">^n</text><text class="terminal-r7" x="549" y="825.2" textLength="48.8" clip-path="url(#terminal-line-33)">&#160;New</text><text class="terminal-r28" x="610" y="825.2" textLength="24.4" clip-path="url(#terminal-line-33)">^P</text><text class="terminal-r7" x="634.4" y="825.2" textLength="195.2" clip-path="url(#terminal-line-33)">&#160;Search&#160;requests</text><text class="terminal-r28" x="841.8" y="825.2" textLength="24.4" clip-path="url(#terminal-line-33)">^p</text><text class="terminal-r7" x="866.2" y="825.2" textLength="109.8" clip-path="url(#terminal-line-33)">&#160;Commands</text><text class="terminal-r28" x="988.2" y="825.2" textLength="24.4" clip-path="url(#terminal-line-33)">f1</text><text class="terminal-r7" x="1012.6" y="825.2" textLength="61" clip-path="url(#terminal-line-33)">&#160;Help</text>
    </g>
    </g>
</svg>
